<svg xmlns="http://www.w3.org/2000/svg" aria-hidden="true" style="position:absolute;width:0;height:0;overflow:hidden"><defs><symbol id="icon-pinterest" viewBox="0 0 32 32"><path d="M16 0C7.165 0 0 7.163 0 16c0 6.779 4.218 12.568 10.17 14.899-.141-1.266-.267-3.208.056-4.589.291-1.248 1.875-7.952 1.875-7.952s-.478-.96-.478-2.378c0-2.224 1.29-3.885 2.896-3.885 1.363 0 2.022 1.024 2.022 2.253 0 1.373-.872 3.424-1.325 5.328-.378 1.592.8 2.891 2.368 2.891 2.845 0 5.03-2.998 5.03-7.328 0-3.829-2.752-6.509-6.683-6.509-4.552 0-7.224 3.416-7.224 6.944 0 1.374.53 2.85 1.192 3.65a.48.48 0 0 1 .109.465l.001-.003-.445 1.813c-.07.293-.232.357-.536.214-1.998-.93-3.248-3.851-3.248-6.198 0-5.046 3.667-9.683 10.573-9.683 5.55 0 9.864 3.957 9.864 9.242 0 5.515-3.477 9.952-8.304 9.952-1.621 0-3.144-.84-3.666-1.837l-.997 3.805c-.362 1.39-1.336 3.133-1.99 4.194 1.499.464 3.09.714 4.739.714 8.835 0 16-7.163 16-16s-7.165-16-16-16z"/></symbol><symbol id="icon-twitter" viewBox="0 0 37 32"><path d="M36.741 4.972c-1.22.556-2.636.96-4.12 1.141l-.07.007a7.342 7.342 0 0 0 3.192-3.984l.015-.052a14.363 14.363 0 0 1-4.539 1.755l-.094.016a7.263 7.263 0 0 0-5.315-2.304h-.01.001c-4.709 0-8.169 4.395-7.106 8.956A20.692 20.692 0 0 1 3.69 2.923l-.029-.037a7.225 7.225 0 0 0-.987 3.666 7.297 7.297 0 0 0 3.219 6.056l.026.016a7.228 7.228 0 0 1-3.341-.929l.036.019c-.08 3.38 2.341 6.542 5.849 7.244a7.357 7.357 0 0 1-3.341.117l.046.008c.959 2.922 3.636 5.006 6.809 5.067h.007a14.574 14.574 0 0 1-9.052 3.127c-.616 0-1.223-.038-1.819-.112l.071.007c3.155 2.055 7.016 3.276 11.162 3.276h.021-.001c13.543 0 21.195-11.438 20.732-21.698a14.98 14.98 0 0 0 3.607-3.724l.033-.052z"/></symbol><symbol id="icon-youtube" viewBox="0 0 34 32"><path d="M16.533 0c-8.835 0-16 7.165-16 16 0 8.837 7.165 16 16 16 8.837 0 16-7.163 16-16 0-8.835-7.163-16-16-16zm5.921 22.523c-2.803.192-9.045.192-11.843 0C7.576 22.315 7.222 20.829 7.2 16c.022-4.838.379-6.315 3.411-6.523 2.798-.192 9.042-.192 11.843 0 3.037.208 3.389 1.694 3.413 6.523-.024 4.838-.381 6.315-3.413 6.523zm-8.587-9.646 6.555 3.118-6.555 3.128v-6.246z"/></symbol><symbol id="icon-instagram" viewBox="0 0 34 32"><path d="M16.533 2.883c4.272 0 4.779.016 6.467.094 4.336.197 6.362 2.254 6.56 6.558.077 1.686.091 2.192.091 6.464 0 4.275-.016 4.781-.093 6.467-.198 4.299-2.218 6.36-6.558 6.558-1.688.077-2.192.093-6.467.093-4.272 0-4.778-.016-6.464-.093-4.347-.198-6.362-2.266-6.56-6.56-.077-1.686-.093-2.192-.093-6.466 0-4.272.016-4.778.093-6.464.198-4.304 2.219-6.363 6.56-6.56 1.686-.077 2.192-.093 6.464-.093zm0-2.883c-4.344 0-4.888.019-6.595.096C4.127.363.896 3.587.631 9.403.553 11.11.535 11.654.535 16s.018 4.891.096 6.597c.266 5.811 3.49 9.04 9.306 9.307 1.709.077 2.253.096 6.597.096 4.346 0 4.891-.019 6.598-.096 5.805-.267 9.042-3.491 9.306-9.307.078-1.706.096-2.251.096-6.597s-.018-4.89-.096-6.595C32.177 3.599 28.95.365 23.134.096 21.425.016 20.88 0 16.534 0zm0 7.784c-4.538 0-8.216 3.678-8.216 8.216s3.678 8.216 8.216 8.216c4.538 0 8.216-3.678 8.216-8.216s-3.678-8.216-8.216-8.216zm0 13.549a5.333 5.333 0 0 1 0-10.666 5.333 5.333 0 0 1 0 10.666zm8.542-15.792h-.001a1.92 1.92 0 0 0-.001 3.84 1.92 1.92 0 0 0 0-3.84z"/></symbol><symbol id="icon-facebook" viewBox="0 0 32 32"><path d="M30.234 0H1.767C.791 0 .001.79.001 1.766v28.469c0 .974.79 1.765 1.766 1.765h15.328V19.608h-4.173v-4.829h4.17v-3.563c0-4.133 2.525-6.384 6.213-6.384 1.766 0 3.283.131 3.726.19v4.32h-2.557c-2.006 0-2.394.955-2.394 2.352v3.085h4.782l-.624 4.829h-4.16V32h8.157c.973 0 1.763-.79 1.763-1.766V1.767A1.763 1.763 0 0 0 30.233.001z"/></symbol></defs></svg>